M48
; DRILL file {KiCad 9.0.4} date 2025-09-22T07:52:09+0800
; FORMAT={-:-/ absolute / metric / decimal}
; #@! TF.CreationDate,2025-09-22T07:52:09+08:00
; #@! TF.GenerationSoftware,Kicad,Pcbnew,9.0.4
; #@! TF.FileFunction,Plated,1,2,PTH
FMAT,2
METRIC
; #@! TA.AperFunction,Plated,PTH,ViaDrill
T1C0.300
; #@! TA.AperFunction,Plated,PTH,ComponentDrill
T2C0.800
; #@! TA.AperFunction,Plated,PTH,ComponentDrill
T3C1.020
; #@! TA.AperFunction,Plated,PTH,ComponentDrill
T4C1.600
%
G90
G05
T1
X103.0Y-78.0
X103.0Y-80.5
X133.5Y-106.0
X134.3Y-106.0
T2
X138.0Y-74.0
X138.0Y-80.5
X141.0Y-95.88
X141.0Y-103.5
X145.62Y-74.0
X145.62Y-80.5
X146.345Y-95.48
X148.345Y-95.48
T3
X105.6Y-65.26
X105.6Y-67.8
X105.6Y-70.34
X105.6Y-72.88
X105.6Y-75.42
X105.6Y-77.96
X105.6Y-80.5
X105.6Y-83.04
X105.6Y-85.58
X105.6Y-88.12
X105.6Y-90.66
X105.6Y-93.2
X105.6Y-95.74
X105.6Y-98.28
X105.6Y-100.82
X131.0Y-65.26
X131.0Y-67.8
X131.0Y-70.34
X131.0Y-72.88
X131.0Y-75.42
X131.0Y-77.96
X131.0Y-80.5
X131.0Y-83.04
X131.0Y-85.58
X131.0Y-88.12
X131.0Y-90.66
X131.0Y-93.2
X131.0Y-95.74
X131.0Y-98.28
X131.0Y-100.82
T4
X84.5Y-68.92
X84.5Y-74.0
X84.5Y-79.08
X84.5Y-84.16
X84.5Y-89.24
X84.5Y-94.32
X84.5Y-99.4
X140.92Y-60.5
X146.0Y-60.5
X158.0Y-68.26
X158.0Y-73.34
X158.0Y-78.42
X158.0Y-83.5
X158.0Y-90.34
X158.0Y-95.42
X158.0Y-100.5
M30
