%TF.GenerationSoftware,KiCad,Pcbnew,9.0.4*%
%TF.CreationDate,2025-09-22T07:52:28+08:00*%
%TF.ProjectId,SecurityDoorLockSystem,53656375-7269-4747-9944-6f6f724c6f63,0*%
%TF.SameCoordinates,Original*%
%TF.FileFunction,Legend,Top*%
%TF.FilePolarity,Positive*%
%FSLAX46Y46*%
G04 Gerber Fmt 4.6, Leading zero omitted, Abs format (unit mm)*
G04 Created by KiCad (PCBNEW 9.0.4) date 2025-09-22 07:52:28*
%MOMM*%
%LPD*%
G01*
G04 APERTURE LIST*
%ADD10C,0.150000*%
%ADD11C,0.127000*%
%ADD12C,0.200000*%
%ADD13C,0.120000*%
G04 APERTURE END LIST*
D10*
X106183095Y-52869819D02*
X106183095Y-53679342D01*
X106183095Y-53679342D02*
X106230714Y-53774580D01*
X106230714Y-53774580D02*
X106278333Y-53822200D01*
X106278333Y-53822200D02*
X106373571Y-53869819D01*
X106373571Y-53869819D02*
X106564047Y-53869819D01*
X106564047Y-53869819D02*
X106659285Y-53822200D01*
X106659285Y-53822200D02*
X106706904Y-53774580D01*
X106706904Y-53774580D02*
X106754523Y-53679342D01*
X106754523Y-53679342D02*
X106754523Y-52869819D01*
X107754523Y-53869819D02*
X107183095Y-53869819D01*
X107468809Y-53869819D02*
X107468809Y-52869819D01*
X107468809Y-52869819D02*
X107373571Y-53012676D01*
X107373571Y-53012676D02*
X107278333Y-53107914D01*
X107278333Y-53107914D02*
X107183095Y-53155533D01*
X143824819Y-99856666D02*
X143348628Y-100189999D01*
X143824819Y-100428094D02*
X142824819Y-100428094D01*
X142824819Y-100428094D02*
X142824819Y-100047142D01*
X142824819Y-100047142D02*
X142872438Y-99951904D01*
X142872438Y-99951904D02*
X142920057Y-99904285D01*
X142920057Y-99904285D02*
X143015295Y-99856666D01*
X143015295Y-99856666D02*
X143158152Y-99856666D01*
X143158152Y-99856666D02*
X143253390Y-99904285D01*
X143253390Y-99904285D02*
X143301009Y-99951904D01*
X143301009Y-99951904D02*
X143348628Y-100047142D01*
X143348628Y-100047142D02*
X143348628Y-100428094D01*
X142824819Y-99523332D02*
X142824819Y-98904285D01*
X142824819Y-98904285D02*
X143205771Y-99237618D01*
X143205771Y-99237618D02*
X143205771Y-99094761D01*
X143205771Y-99094761D02*
X143253390Y-98999523D01*
X143253390Y-98999523D02*
X143301009Y-98951904D01*
X143301009Y-98951904D02*
X143396247Y-98904285D01*
X143396247Y-98904285D02*
X143634342Y-98904285D01*
X143634342Y-98904285D02*
X143729580Y-98951904D01*
X143729580Y-98951904D02*
X143777200Y-98999523D01*
X143777200Y-98999523D02*
X143824819Y-99094761D01*
X143824819Y-99094761D02*
X143824819Y-99380475D01*
X143824819Y-99380475D02*
X143777200Y-99475713D01*
X143777200Y-99475713D02*
X143729580Y-99523332D01*
X151434819Y-95453333D02*
X152149104Y-95453333D01*
X152149104Y-95453333D02*
X152291961Y-95500952D01*
X152291961Y-95500952D02*
X152387200Y-95596190D01*
X152387200Y-95596190D02*
X152434819Y-95739047D01*
X152434819Y-95739047D02*
X152434819Y-95834285D01*
X151530057Y-95024761D02*
X151482438Y-94977142D01*
X151482438Y-94977142D02*
X151434819Y-94881904D01*
X151434819Y-94881904D02*
X151434819Y-94643809D01*
X151434819Y-94643809D02*
X151482438Y-94548571D01*
X151482438Y-94548571D02*
X151530057Y-94500952D01*
X151530057Y-94500952D02*
X151625295Y-94453333D01*
X151625295Y-94453333D02*
X151720533Y-94453333D01*
X151720533Y-94453333D02*
X151863390Y-94500952D01*
X151863390Y-94500952D02*
X152434819Y-95072380D01*
X152434819Y-95072380D02*
X152434819Y-94453333D01*
X141643333Y-78584819D02*
X141310000Y-78108628D01*
X141071905Y-78584819D02*
X141071905Y-77584819D01*
X141071905Y-77584819D02*
X141452857Y-77584819D01*
X141452857Y-77584819D02*
X141548095Y-77632438D01*
X141548095Y-77632438D02*
X141595714Y-77680057D01*
X141595714Y-77680057D02*
X141643333Y-77775295D01*
X141643333Y-77775295D02*
X141643333Y-77918152D01*
X141643333Y-77918152D02*
X141595714Y-78013390D01*
X141595714Y-78013390D02*
X141548095Y-78061009D01*
X141548095Y-78061009D02*
X141452857Y-78108628D01*
X141452857Y-78108628D02*
X141071905Y-78108628D01*
X142024286Y-77680057D02*
X142071905Y-77632438D01*
X142071905Y-77632438D02*
X142167143Y-77584819D01*
X142167143Y-77584819D02*
X142405238Y-77584819D01*
X142405238Y-77584819D02*
X142500476Y-77632438D01*
X142500476Y-77632438D02*
X142548095Y-77680057D01*
X142548095Y-77680057D02*
X142595714Y-77775295D01*
X142595714Y-77775295D02*
X142595714Y-77870533D01*
X142595714Y-77870533D02*
X142548095Y-78013390D01*
X142548095Y-78013390D02*
X141976667Y-78584819D01*
X141976667Y-78584819D02*
X142595714Y-78584819D01*
X141643333Y-72084819D02*
X141310000Y-71608628D01*
X141071905Y-72084819D02*
X141071905Y-71084819D01*
X141071905Y-71084819D02*
X141452857Y-71084819D01*
X141452857Y-71084819D02*
X141548095Y-71132438D01*
X141548095Y-71132438D02*
X141595714Y-71180057D01*
X141595714Y-71180057D02*
X141643333Y-71275295D01*
X141643333Y-71275295D02*
X141643333Y-71418152D01*
X141643333Y-71418152D02*
X141595714Y-71513390D01*
X141595714Y-71513390D02*
X141548095Y-71561009D01*
X141548095Y-71561009D02*
X141452857Y-71608628D01*
X141452857Y-71608628D02*
X141071905Y-71608628D01*
X142595714Y-72084819D02*
X142024286Y-72084819D01*
X142310000Y-72084819D02*
X142310000Y-71084819D01*
X142310000Y-71084819D02*
X142214762Y-71227676D01*
X142214762Y-71227676D02*
X142119524Y-71322914D01*
X142119524Y-71322914D02*
X142024286Y-71370533D01*
X151434819Y-75913333D02*
X152149104Y-75913333D01*
X152149104Y-75913333D02*
X152291961Y-75960952D01*
X152291961Y-75960952D02*
X152387200Y-76056190D01*
X152387200Y-76056190D02*
X152434819Y-76199047D01*
X152434819Y-76199047D02*
X152434819Y-76294285D01*
X151768152Y-75008571D02*
X152434819Y-75008571D01*
X151387200Y-75246666D02*
X152101485Y-75484761D01*
X152101485Y-75484761D02*
X152101485Y-74865714D01*
X89974819Y-84793333D02*
X90689104Y-84793333D01*
X90689104Y-84793333D02*
X90831961Y-84840952D01*
X90831961Y-84840952D02*
X90927200Y-84936190D01*
X90927200Y-84936190D02*
X90974819Y-85079047D01*
X90974819Y-85079047D02*
X90974819Y-85174285D01*
X89974819Y-84412380D02*
X89974819Y-83793333D01*
X89974819Y-83793333D02*
X90355771Y-84126666D01*
X90355771Y-84126666D02*
X90355771Y-83983809D01*
X90355771Y-83983809D02*
X90403390Y-83888571D01*
X90403390Y-83888571D02*
X90451009Y-83840952D01*
X90451009Y-83840952D02*
X90546247Y-83793333D01*
X90546247Y-83793333D02*
X90784342Y-83793333D01*
X90784342Y-83793333D02*
X90879580Y-83840952D01*
X90879580Y-83840952D02*
X90927200Y-83888571D01*
X90927200Y-83888571D02*
X90974819Y-83983809D01*
X90974819Y-83983809D02*
X90974819Y-84269523D01*
X90974819Y-84269523D02*
X90927200Y-84364761D01*
X90927200Y-84364761D02*
X90879580Y-84412380D01*
X142826666Y-65974819D02*
X142826666Y-66689104D01*
X142826666Y-66689104D02*
X142779047Y-66831961D01*
X142779047Y-66831961D02*
X142683809Y-66927200D01*
X142683809Y-66927200D02*
X142540952Y-66974819D01*
X142540952Y-66974819D02*
X142445714Y-66974819D01*
X143826666Y-66974819D02*
X143255238Y-66974819D01*
X143540952Y-66974819D02*
X143540952Y-65974819D01*
X143540952Y-65974819D02*
X143445714Y-66117676D01*
X143445714Y-66117676D02*
X143350476Y-66212914D01*
X143350476Y-66212914D02*
X143255238Y-66260533D01*
X147178333Y-92089580D02*
X147130714Y-92137200D01*
X147130714Y-92137200D02*
X146987857Y-92184819D01*
X146987857Y-92184819D02*
X146892619Y-92184819D01*
X146892619Y-92184819D02*
X146749762Y-92137200D01*
X146749762Y-92137200D02*
X146654524Y-92041961D01*
X146654524Y-92041961D02*
X146606905Y-91946723D01*
X146606905Y-91946723D02*
X146559286Y-91756247D01*
X146559286Y-91756247D02*
X146559286Y-91613390D01*
X146559286Y-91613390D02*
X146606905Y-91422914D01*
X146606905Y-91422914D02*
X146654524Y-91327676D01*
X146654524Y-91327676D02*
X146749762Y-91232438D01*
X146749762Y-91232438D02*
X146892619Y-91184819D01*
X146892619Y-91184819D02*
X146987857Y-91184819D01*
X146987857Y-91184819D02*
X147130714Y-91232438D01*
X147130714Y-91232438D02*
X147178333Y-91280057D01*
X148130714Y-92184819D02*
X147559286Y-92184819D01*
X147845000Y-92184819D02*
X147845000Y-91184819D01*
X147845000Y-91184819D02*
X147749762Y-91327676D01*
X147749762Y-91327676D02*
X147654524Y-91422914D01*
X147654524Y-91422914D02*
X147559286Y-91470533D01*
D11*
%TO.C,U1*%
X104020000Y-55300000D02*
X115089000Y-55300000D01*
X104020000Y-55300000D02*
X132530000Y-55300000D01*
X104020000Y-106250000D02*
X104020000Y-55300000D01*
X104020000Y-106250000D02*
X104020000Y-55300000D01*
X104020000Y-106250000D02*
X109390000Y-106250000D01*
X109390000Y-106250000D02*
X127080000Y-106250000D01*
X115089000Y-55300000D02*
X121800000Y-55300000D01*
X121800000Y-55300000D02*
X132530000Y-55300000D01*
X127080000Y-106250000D02*
X132530000Y-106250000D01*
X132530000Y-55300000D02*
X132530000Y-106250000D01*
X132530000Y-55300000D02*
X132530000Y-106250000D01*
X132530000Y-106250000D02*
X104020000Y-106250000D01*
D12*
X103550000Y-65260000D02*
G75*
G02*
X103350000Y-65260000I-100000J0D01*
G01*
X103350000Y-65260000D02*
G75*
G02*
X103550000Y-65260000I100000J0D01*
G01*
D13*
%TO.C,R3*%
X139630000Y-102960000D02*
X139960000Y-102960000D01*
X142370000Y-102960000D02*
X142040000Y-102960000D01*
X139630000Y-96420000D02*
X139630000Y-102960000D01*
X139960000Y-96420000D02*
X139630000Y-96420000D01*
X142040000Y-96420000D02*
X142370000Y-96420000D01*
X142370000Y-96420000D02*
X142370000Y-102960000D01*
%TO.C,J2*%
X164080000Y-100940000D02*
X163470000Y-100500000D01*
X164080000Y-100060000D01*
X164080000Y-100940000D01*
G36*
X164080000Y-100940000D02*
G01*
X163470000Y-100500000D01*
X164080000Y-100060000D01*
X164080000Y-100940000D01*
G37*
X163470000Y-87080000D02*
X163470000Y-100200000D01*
X152980000Y-87080000D02*
X163470000Y-87080000D01*
X163470000Y-100800000D02*
X163470000Y-103160000D01*
X163470000Y-103160000D02*
X152980000Y-103160000D01*
X162350000Y-103160000D02*
X162350000Y-87080000D01*
X154600000Y-103160000D02*
X154600000Y-87080000D01*
X152980000Y-103160000D02*
X152980000Y-87080000D01*
%TO.C,R2*%
X138540000Y-79130000D02*
X145080000Y-79130000D01*
X138540000Y-79460000D02*
X138540000Y-79130000D01*
X138540000Y-81540000D02*
X138540000Y-81870000D01*
X138540000Y-81870000D02*
X145080000Y-81870000D01*
X145080000Y-79130000D02*
X145080000Y-79460000D01*
X145080000Y-81870000D02*
X145080000Y-81540000D01*
%TO.C,R1*%
X138540000Y-72630000D02*
X145080000Y-72630000D01*
X138540000Y-72960000D02*
X138540000Y-72630000D01*
X138540000Y-75040000D02*
X138540000Y-75370000D01*
X138540000Y-75370000D02*
X145080000Y-75370000D01*
X145080000Y-72630000D02*
X145080000Y-72960000D01*
X145080000Y-75370000D02*
X145080000Y-75040000D01*
%TO.C,J4*%
X152980000Y-86160000D02*
X152980000Y-65000000D01*
X154600000Y-86160000D02*
X154600000Y-65000000D01*
X162350000Y-86160000D02*
X162350000Y-65000000D01*
X163470000Y-86160000D02*
X152980000Y-86160000D01*
X163470000Y-83800000D02*
X163470000Y-86160000D01*
X152980000Y-65000000D02*
X163470000Y-65000000D01*
X163470000Y-65000000D02*
X163470000Y-83200000D01*
X164080000Y-83940000D02*
X163470000Y-83500000D01*
X164080000Y-83060000D01*
X164080000Y-83940000D01*
G36*
X164080000Y-83940000D02*
G01*
X163470000Y-83500000D01*
X164080000Y-83060000D01*
X164080000Y-83940000D01*
G37*
%TO.C,J3*%
X89520000Y-66260000D02*
X89520000Y-102660000D01*
X87900000Y-66260000D02*
X87900000Y-102660000D01*
X80150000Y-66260000D02*
X80150000Y-102660000D01*
X79030000Y-66260000D02*
X89520000Y-66260000D01*
X79030000Y-68620000D02*
X79030000Y-66260000D01*
X89520000Y-102660000D02*
X79030000Y-102660000D01*
X79030000Y-102660000D02*
X79030000Y-69220000D01*
X79030000Y-68920000D02*
X78420000Y-69360000D01*
X78420000Y-68480000D01*
X79030000Y-68920000D01*
G36*
X79030000Y-68920000D02*
G01*
X78420000Y-69360000D01*
X78420000Y-68480000D01*
X79030000Y-68920000D01*
G37*
%TO.C,J1*%
X148660000Y-65520000D02*
X137660000Y-65520000D01*
X148660000Y-63900000D02*
X137660000Y-63900000D01*
X148660000Y-56150000D02*
X137660000Y-56150000D01*
X148660000Y-55030000D02*
X148660000Y-65520000D01*
X146300000Y-55030000D02*
X148660000Y-55030000D01*
X137660000Y-65520000D02*
X137660000Y-55030000D01*
X137660000Y-55030000D02*
X145700000Y-55030000D01*
X146000000Y-55030000D02*
X145560000Y-54420000D01*
X146440000Y-54420000D01*
X146000000Y-55030000D01*
G36*
X146000000Y-55030000D02*
G01*
X145560000Y-54420000D01*
X146440000Y-54420000D01*
X146000000Y-55030000D01*
G37*
%TO.C,C1*%
X149965000Y-95480000D02*
G75*
G02*
X144725000Y-95480000I-2620000J0D01*
G01*
X144725000Y-95480000D02*
G75*
G02*
X149965000Y-95480000I2620000J0D01*
G01*
%TD*%
M02*
