%TF.GenerationSoftware,KiCad,Pcbnew,9.0.4*%
%TF.CreationDate,2025-09-22T07:52:28+08:00*%
%TF.ProjectId,SecurityDoorLockSystem,53656375-7269-4747-9944-6f6f724c6f63,0*%
%TF.SameCoordinates,Original*%
%TF.FileFunction,Copper,L2,Bot*%
%TF.FilePolarity,Positive*%
%FSLAX46Y46*%
G04 Gerber Fmt 4.6, Leading zero omitted, Abs format (unit mm)*
G04 Created by KiCad (PCBNEW 9.0.4) date 2025-09-22 07:52:28*
%MOMM*%
%LPD*%
G01*
G04 APERTURE LIST*
G04 Aperture macros list*
%AMRoundRect*
0 Rectangle with rounded corners*
0 $1 Rounding radius*
0 $2 $3 $4 $5 $6 $7 $8 $9 X,Y pos of 4 corners*
0 Add a 4 corners polygon primitive as box body*
4,1,4,$2,$3,$4,$5,$6,$7,$8,$9,$2,$3,0*
0 Add four circle primitives for the rounded corners*
1,1,$1+$1,$2,$3*
1,1,$1+$1,$4,$5*
1,1,$1+$1,$6,$7*
1,1,$1+$1,$8,$9*
0 Add four rect primitives between the rounded corners*
20,1,$1+$1,$2,$3,$4,$5,0*
20,1,$1+$1,$4,$5,$6,$7,0*
20,1,$1+$1,$6,$7,$8,$9,0*
20,1,$1+$1,$8,$9,$2,$3,0*%
G04 Aperture macros list end*
%TA.AperFunction,ComponentPad*%
%ADD10R,2.000000X2.000000*%
%TD*%
%TA.AperFunction,ComponentPad*%
%ADD11C,2.000000*%
%TD*%
%TA.AperFunction,ComponentPad*%
%ADD12C,1.600000*%
%TD*%
%TA.AperFunction,ComponentPad*%
%ADD13C,2.400000*%
%TD*%
%TA.AperFunction,ComponentPad*%
%ADD14RoundRect,0.250001X0.949999X-0.949999X0.949999X0.949999X-0.949999X0.949999X-0.949999X-0.949999X0*%
%TD*%
%TA.AperFunction,ComponentPad*%
%ADD15RoundRect,0.250001X-0.949999X0.949999X-0.949999X-0.949999X0.949999X-0.949999X0.949999X0.949999X0*%
%TD*%
%TA.AperFunction,ComponentPad*%
%ADD16RoundRect,0.250001X0.949999X0.949999X-0.949999X0.949999X-0.949999X-0.949999X0.949999X-0.949999X0*%
%TD*%
%TA.AperFunction,ViaPad*%
%ADD17C,0.600000*%
%TD*%
%TA.AperFunction,Conductor*%
%ADD18C,0.200000*%
%TD*%
G04 APERTURE END LIST*
D10*
%TO.P,U1,1,3V3*%
%TO.N,/3v3*%
X105600000Y-65260000D03*
D11*
%TO.P,U1,2,GND*%
%TO.N,GND*%
X105600000Y-67800000D03*
%TO.P,U1,3,D15*%
%TO.N,unconnected-(U1-D15-Pad3)*%
X105600000Y-70340000D03*
%TO.P,U1,4,D2*%
%TO.N,unconnected-(U1-D2-Pad4)*%
X105600000Y-72880000D03*
%TO.P,U1,5,D4*%
%TO.N,Net-(U1-D4)*%
X105600000Y-75420000D03*
%TO.P,U1,6,RX2*%
%TO.N,Net-(U1-RX2)*%
X105600000Y-77960000D03*
%TO.P,U1,7,TX2*%
%TO.N,Net-(U1-TX2)*%
X105600000Y-80500000D03*
%TO.P,U1,8,D5*%
%TO.N,unconnected-(U1-D5-Pad8)*%
X105600000Y-83040000D03*
%TO.P,U1,9,D18*%
%TO.N,/SCK*%
X105600000Y-85580000D03*
%TO.P,U1,10,D19*%
%TO.N,/MISO*%
X105600000Y-88120000D03*
%TO.P,U1,11,D21*%
%TO.N,/SDA*%
X105600000Y-90660000D03*
%TO.P,U1,12,RX0*%
%TO.N,unconnected-(U1-RX0-Pad12)*%
X105600000Y-93200000D03*
%TO.P,U1,13,TX0*%
%TO.N,unconnected-(U1-TX0-Pad13)*%
X105600000Y-95740000D03*
%TO.P,U1,14,D22*%
%TO.N,unconnected-(U1-D22-Pad14)*%
X105600000Y-98280000D03*
%TO.P,U1,15,D23*%
%TO.N,/MOSI*%
X105600000Y-100820000D03*
%TO.P,U1,16,EN*%
%TO.N,unconnected-(U1-EN-Pad16)*%
X131000000Y-100820000D03*
%TO.P,U1,17,VP*%
%TO.N,unconnected-(U1-VP-Pad17)*%
X131000000Y-98280000D03*
%TO.P,U1,18,VN*%
%TO.N,unconnected-(U1-VN-Pad18)*%
X131000000Y-95740000D03*
%TO.P,U1,19,D34*%
%TO.N,unconnected-(U1-D34-Pad19)*%
X131000000Y-93200000D03*
%TO.P,U1,20,D35*%
%TO.N,unconnected-(U1-D35-Pad20)*%
X131000000Y-90660000D03*
%TO.P,U1,21,D32*%
%TO.N,/RST*%
X131000000Y-88120000D03*
%TO.P,U1,22,D33*%
%TO.N,unconnected-(U1-D33-Pad22)*%
X131000000Y-85580000D03*
%TO.P,U1,23,D25*%
%TO.N,unconnected-(U1-D25-Pad23)*%
X131000000Y-83040000D03*
%TO.P,U1,24,D26*%
%TO.N,unconnected-(U1-D26-Pad24)*%
X131000000Y-80500000D03*
%TO.P,U1,25,D27*%
%TO.N,unconnected-(U1-D27-Pad25)*%
X131000000Y-77960000D03*
%TO.P,U1,26,D14*%
%TO.N,unconnected-(U1-D14-Pad26)*%
X131000000Y-75420000D03*
%TO.P,U1,27,D12*%
%TO.N,unconnected-(U1-D12-Pad27)*%
X131000000Y-72880000D03*
%TO.P,U1,28,D13*%
%TO.N,unconnected-(U1-D13-Pad28)*%
X131000000Y-70340000D03*
%TO.P,U1,29,GND*%
%TO.N,GND*%
X131000000Y-67800000D03*
%TO.P,U1,30,VIN*%
%TO.N,VCC*%
X131000000Y-65260000D03*
%TD*%
D12*
%TO.P,R3,2*%
%TO.N,Net-(U1-D4)*%
X141000000Y-103500000D03*
%TO.P,R3,1*%
%TO.N,/Servo Signal*%
X141000000Y-95880000D03*
%TD*%
D13*
%TO.P,J2,3,Pin_3*%
%TO.N,GND*%
X158000000Y-90340000D03*
%TO.P,J2,2,Pin_2*%
%TO.N,VCC*%
X158000000Y-95420000D03*
D14*
%TO.P,J2,1,Pin_1*%
%TO.N,/Servo Signal*%
X158000000Y-100500000D03*
%TD*%
D12*
%TO.P,R2,1*%
%TO.N,Net-(U1-RX2)*%
X138000000Y-80500000D03*
%TO.P,R2,2*%
%TO.N,/Receiver*%
X145620000Y-80500000D03*
%TD*%
%TO.P,R1,1*%
%TO.N,Net-(U1-TX2)*%
X138000000Y-74000000D03*
%TO.P,R1,2*%
%TO.N,/Transmitter*%
X145620000Y-74000000D03*
%TD*%
D14*
%TO.P,J4,1,Pin_1*%
%TO.N,VCC*%
X158000000Y-83500000D03*
D13*
%TO.P,J4,2,Pin_2*%
%TO.N,GND*%
X158000000Y-78420000D03*
%TO.P,J4,3,Pin_3*%
%TO.N,/Receiver*%
X158000000Y-73340000D03*
%TO.P,J4,4,Pin_4*%
%TO.N,/Transmitter*%
X158000000Y-68260000D03*
%TD*%
D15*
%TO.P,J3,1,Pin_1*%
%TO.N,/SDA*%
X84500000Y-68920000D03*
D13*
%TO.P,J3,2,Pin_2*%
%TO.N,/SCK*%
X84500000Y-74000000D03*
%TO.P,J3,3,Pin_3*%
%TO.N,/MOSI*%
X84500000Y-79080000D03*
%TO.P,J3,4,Pin_4*%
%TO.N,/MISO*%
X84500000Y-84160000D03*
%TO.P,J3,5,Pin_5*%
%TO.N,GND*%
X84500000Y-89240000D03*
%TO.P,J3,6,Pin_6*%
%TO.N,/RST*%
X84500000Y-94320000D03*
%TO.P,J3,7,Pin_7*%
%TO.N,/3v3*%
X84500000Y-99400000D03*
%TD*%
D16*
%TO.P,J1,1,Pin_1*%
%TO.N,VCC*%
X146000000Y-60500000D03*
D13*
%TO.P,J1,2,Pin_2*%
%TO.N,GND*%
X140920000Y-60500000D03*
%TD*%
D12*
%TO.P,C1,1*%
%TO.N,/Servo Signal*%
X146345000Y-95480000D03*
%TO.P,C1,2*%
%TO.N,GND*%
X148345000Y-95480000D03*
%TD*%
D17*
%TO.N,Net-(U1-RX2)*%
X103000000Y-78000000D03*
X134300003Y-106000000D03*
%TO.N,Net-(U1-TX2)*%
X103000000Y-80500000D03*
X133500000Y-106000000D03*
%TD*%
D18*
%TO.N,Net-(U1-RX2)*%
X99500000Y-81500000D02*
X103000000Y-78000000D01*
X99500000Y-107000000D02*
X99500000Y-81500000D01*
X130500000Y-110000000D02*
X102500000Y-110000000D01*
X102432900Y-110000000D02*
X99500000Y-107067100D01*
X134300003Y-106199997D02*
X130500000Y-110000000D01*
X99500000Y-107067100D02*
X99500000Y-107000000D01*
X134300003Y-106000000D02*
X134300003Y-106199997D01*
X102500000Y-110000000D02*
X102432900Y-110000000D01*
%TO.N,Net-(U1-TX2)*%
X100000000Y-83500000D02*
X103000000Y-80500000D01*
X100000000Y-106500000D02*
X100000000Y-83500000D01*
X130000000Y-109500000D02*
X102500000Y-109500000D01*
X100000000Y-107000000D02*
X100000000Y-106500000D01*
X133500000Y-106000000D02*
X130000000Y-109500000D01*
X102500000Y-109500000D02*
X100000000Y-107000000D01*
%TD*%
M02*
