%TF.GenerationSoftware,KiCad,Pcbnew,9.0.4*%
%TF.CreationDate,2025-09-22T07:52:28+08:00*%
%TF.ProjectId,SecurityDoorLockSystem,53656375-7269-4747-9944-6f6f724c6f63,0*%
%TF.SameCoordinates,Original*%
%TF.FileFunction,Soldermask,Bot*%
%TF.FilePolarity,Negative*%
%FSLAX46Y46*%
G04 Gerber Fmt 4.6, Leading zero omitted, Abs format (unit mm)*
G04 Created by KiCad (PCBNEW 9.0.4) date 2025-09-22 07:52:28*
%MOMM*%
%LPD*%
G01*
G04 APERTURE LIST*
G04 Aperture macros list*
%AMRoundRect*
0 Rectangle with rounded corners*
0 $1 Rounding radius*
0 $2 $3 $4 $5 $6 $7 $8 $9 X,Y pos of 4 corners*
0 Add a 4 corners polygon primitive as box body*
4,1,4,$2,$3,$4,$5,$6,$7,$8,$9,$2,$3,0*
0 Add four circle primitives for the rounded corners*
1,1,$1+$1,$2,$3*
1,1,$1+$1,$4,$5*
1,1,$1+$1,$6,$7*
1,1,$1+$1,$8,$9*
0 Add four rect primitives between the rounded corners*
20,1,$1+$1,$2,$3,$4,$5,0*
20,1,$1+$1,$4,$5,$6,$7,0*
20,1,$1+$1,$6,$7,$8,$9,0*
20,1,$1+$1,$8,$9,$2,$3,0*%
G04 Aperture macros list end*
%ADD10C,3.000000*%
%ADD11RoundRect,0.102000X-1.000000X-1.000000X1.000000X-1.000000X1.000000X1.000000X-1.000000X1.000000X0*%
%ADD12C,2.204000*%
%ADD13C,1.600000*%
%ADD14C,2.400000*%
%ADD15RoundRect,0.250001X0.949999X-0.949999X0.949999X0.949999X-0.949999X0.949999X-0.949999X-0.949999X0*%
%ADD16RoundRect,0.250001X-0.949999X0.949999X-0.949999X-0.949999X0.949999X-0.949999X0.949999X0.949999X0*%
%ADD17RoundRect,0.250001X0.949999X0.949999X-0.949999X0.949999X-0.949999X-0.949999X0.949999X-0.949999X0*%
G04 APERTURE END LIST*
D10*
%TO.C,U1*%
X106020000Y-57300000D03*
X106020000Y-104250000D03*
X130530000Y-57300000D03*
X130530000Y-104250000D03*
D11*
X105600000Y-65260000D03*
D12*
X105600000Y-67800000D03*
X105600000Y-70340000D03*
X105600000Y-72880000D03*
X105600000Y-75420000D03*
X105600000Y-77960000D03*
X105600000Y-80500000D03*
X105600000Y-83040000D03*
X105600000Y-85580000D03*
X105600000Y-88120000D03*
X105600000Y-90660000D03*
X105600000Y-93200000D03*
X105600000Y-95740000D03*
X105600000Y-98280000D03*
X105600000Y-100820000D03*
X131000000Y-100820000D03*
X131000000Y-98280000D03*
X131000000Y-95740000D03*
X131000000Y-93200000D03*
X131000000Y-90660000D03*
X131000000Y-88120000D03*
X131000000Y-85580000D03*
X131000000Y-83040000D03*
X131000000Y-80500000D03*
X131000000Y-77960000D03*
X131000000Y-75420000D03*
X131000000Y-72880000D03*
X131000000Y-70340000D03*
X131000000Y-67800000D03*
X131000000Y-65260000D03*
%TD*%
D13*
%TO.C,R3*%
X141000000Y-103500000D03*
X141000000Y-95880000D03*
%TD*%
D14*
%TO.C,J2*%
X158000000Y-90340000D03*
X158000000Y-95420000D03*
D15*
X158000000Y-100500000D03*
%TD*%
D13*
%TO.C,R2*%
X138000000Y-80500000D03*
X145620000Y-80500000D03*
%TD*%
%TO.C,R1*%
X138000000Y-74000000D03*
X145620000Y-74000000D03*
%TD*%
D15*
%TO.C,J4*%
X158000000Y-83500000D03*
D14*
X158000000Y-78420000D03*
X158000000Y-73340000D03*
X158000000Y-68260000D03*
%TD*%
D16*
%TO.C,J3*%
X84500000Y-68920000D03*
D14*
X84500000Y-74000000D03*
X84500000Y-79080000D03*
X84500000Y-84160000D03*
X84500000Y-89240000D03*
X84500000Y-94320000D03*
X84500000Y-99400000D03*
%TD*%
D17*
%TO.C,J1*%
X146000000Y-60500000D03*
D14*
X140920000Y-60500000D03*
%TD*%
D13*
%TO.C,C1*%
X146345000Y-95480000D03*
X148345000Y-95480000D03*
%TD*%
M02*
